<?xml version="1.0" encoding="utf-8"?>
<!-- Generator: Adobe Illustrator 16.0.0, SVG Export Plug-In . SVG Version: 6.00 Build 0)  -->
<!DOCTYPE svg PUBLIC "-//W3C//DTD SVG 1.1//EN" "http://www.w3.org/Graphics/SVG/1.1/DTD/svg11.dtd">
<svg version="1.1" xmlns="http://www.w3.org/2000/svg" xmlns:xlink="http://www.w3.org/1999/xlink" x="0px" y="0px" width="1200px"
	 height="2625.263px" viewBox="0 0 1200 2625.263" enable-background="new 0 0 1200 2625.263" xml:space="preserve">
<g id="Layer_1" display="none">
</g>
<g id="Layer_2" display="none">
</g>
<g id="Layer_3" display="none">
</g>
<g id="clouds">
	<g>
		<circle fill="#A1E4EB" cx="91.644" cy="956.345" r="23.946"/>
		<circle fill="#A1E4EB" cx="114.903" cy="969.743" r="14.673"/>
		<circle fill="#A1E4EB" cx="61.938" cy="967.081" r="16.888"/>
		<polygon fill="#A1E4EB" points="116.626,984.719 62.426,984.719 63.426,955.305 115.626,955.305 		"/>
	</g>
	<g>
		<circle fill="#A1E4EB" cx="1014.045" cy="1928.128" r="23.946"/>
		<circle fill="#A1E4EB" cx="1037.305" cy="1940.524" r="14.673"/>
		<circle fill="#A1E4EB" cx="984.34" cy="1938.863" r="16.888"/>
		<rect x="985.827" y="1928.087" fill="#A1E4EB" width="52.199" height="27.414"/>
	</g>
	<g>
		<path fill="#A1E4EB" d="M1226.065,2198.102c0,15.145-12.277,27.422-27.422,27.422c-15.146,0-27.424-12.277-27.424-27.422
			c0-15.147,12.277-27.424,27.424-27.424C1213.788,2170.678,1226.065,2182.954,1226.065,2198.102z"/>
		<circle fill="#A1E4EB" cx="1164.622" cy="2210.396" r="19.34"/>
		<rect x="1166.327" y="2198.054" fill="#A1E4EB" width="59.779" height="31.104"/>
	</g>
	<g>
		<circle fill="#A1E4EB" cx="36.187" cy="2302.933" r="36.84"/>
		<circle fill="#A1E4EB" cx="80.272" cy="2328.581" r="28.104"/>
		<circle fill="#A1E4EB" cx="-6.659" cy="2323.679" r="33.006"/>
		<rect x="-9.843" y="2312.009" fill="#A1E4EB" width="90.114" height="44.676"/>
	</g>
	<g>
		<circle fill="#A1E4EB" cx="222.461" cy="2410.539" r="23.946"/>
		<circle fill="#A1E4EB" cx="245.721" cy="2422.936" r="14.673"/>
		<circle fill="#A1E4EB" cx="192.756" cy="2421.274" r="16.888"/>
		<rect x="194.243" y="2410.498" fill="#A1E4EB" width="52.199" height="27.414"/>
	</g>
	<g>
		<circle fill="#65B9C2" cx="33.545" cy="372.102" r="35.095"/>
		<circle fill="#65B9C2" cx="75.541" cy="396.536" r="26.772"/>
		<circle fill="#65B9C2" cx="-7.271" cy="391.866" r="31.443"/>
		<rect x="-10.305" y="380.749" fill="#65B9C2" width="85.847" height="42.56"/>
	</g>
	<g>
		<circle fill="#65B9C2" cx="127.491" cy="454.737" r="27.568"/>
		<circle fill="#65B9C2" cx="156.759" cy="472.652" r="19.339"/>
		<circle fill="#65B9C2" cx="91.691" cy="471" r="21.019"/>
		<rect x="95.046" y="458.53" fill="#65B9C2" width="67.436" height="33.432"/>
	</g>
	<g>
		<circle fill="#65B9C2" cx="1196.407" cy="418.451" r="27.568"/>
		<circle fill="#65B9C2" cx="1160.607" cy="434.714" r="21.019"/>
		<rect x="1163.962" y="422.244" fill="#65B9C2" width="67.436" height="33.432"/>
	</g>
	<g>
		<circle fill="#65B9C2" cx="11.804" cy="754.313" r="27.568"/>
		<circle fill="#65B9C2" cx="41.073" cy="772.228" r="19.339"/>
		<rect x="-20.642" y="758.106" fill="#65B9C2" width="67.436" height="33.432"/>
	</g>
	<g>
		<circle fill="#65B9C2" cx="1138.145" cy="748.48" r="36.841"/>
		<circle fill="#65B9C2" cx="1182.229" cy="774.128" r="28.104"/>
		<circle fill="#65B9C2" cx="1095.299" cy="769.227" r="33.007"/>
		<rect x="1092.114" y="757.556" fill="#65B9C2" width="90.115" height="44.676"/>
	</g>
</g>
<g id="blue">
</g>
<g id="Layer_6" display="none">
</g>
</svg>
